<?xml version="1.0" standalone="no"?>
<!DOCTYPE svg PUBLIC "-//W3C//DTD SVG 20010904//EN"
 "http://www.w3.org/TR/2001/REC-SVG-20010904/DTD/svg10.dtd">
<svg version="1.0" xmlns="http://www.w3.org/2000/svg"
 width="1024.000000pt" height="1024.000000pt" viewBox="0 0 1024.000000 1024.000000"
 preserveAspectRatio="xMidYMid meet">

<g transform="translate(0.000000,1024.000000) scale(0.100000,-0.100000)"
fill="#000000" stroke="none">
<path d="M0 5120 l0 -5120 5120 0 5120 0 0 5120 0 5120 -5120 0 -5120 0 0
-5120z m4780 2930 c12 -8 11 -10 -7 -10 -13 0 -23 -4 -23 -10 0 -5 -5 -10 -10
-10 -6 0 -5 8 2 20 15 23 17 23 38 10z m300 -11 c0 -5 5 -7 10 -4 6 3 10 1 10
-5 0 -6 -7 -13 -15 -16 -8 -4 -12 -10 -9 -15 3 -5 -6 -9 -20 -9 -20 0 -24 4
-19 18 13 35 43 58 43 31z m-123 -36 c-3 -10 -5 -4 -5 12 0 17 2 24 5 18 2 -7
2 -21 0 -30z m24 10 c-8 -15 -10 -15 -11 -2 0 17 10 32 18 25 2 -3 -1 -13 -7
-23z m49 11 c0 -9 -5 -12 -12 -8 -8 5 -9 2 -5 -9 3 -10 2 -17 -3 -17 -6 0 -10
9 -10 19 0 16 7 24 28 30 1 1 2 -6 2 -15z m-272 -20 c-11 -11 -18 -12 -22 -5
-4 6 0 11 8 11 9 0 16 5 16 12 0 6 3 8 7 4 4 -3 0 -14 -9 -22z m70 19 c-10 -2
-18 -9 -18 -14 0 -6 5 -7 10 -4 6 3 10 1 10 -4 0 -12 -11 -14 -34 -5 -23 9 -1
34 28 33 17 -1 17 -2 4 -6z m59 -25 c-3 -7 -5 -2 -5 12 0 14 2 19 5 13 2 -7 2
-19 0 -25z m-17 2 c0 -5 -5 -10 -11 -10 -5 0 -7 5 -4 10 3 6 8 10 11 10 2 0 4
-4 4 -10z m240 -6 c0 -8 -5 -12 -10 -9 -6 4 -8 11 -5 16 9 14 15 11 15 -7z
m-320 -139 c-7 -9 -15 -13 -17 -11 -7 7 7 26 19 26 6 0 6 -6 -2 -15z m260 5
c0 -5 -5 -10 -11 -10 -5 0 -7 5 -4 10 3 6 8 10 11 10 2 0 4 -4 4 -10z m86 -15
c16 -8 22 -15 14 -15 -8 1 -24 7 -34 15 -25 19 -16 19 20 0z m-59 -67 c-2 -13
-4 -3 -4 22 0 25 2 35 4 23 2 -13 2 -33 0 -45z m289 7 c23 -18 10 -18 -36 0
-32 12 -33 14 -9 14 14 1 34 -6 45 -14z m-259 -17 c-3 -8 -6 -5 -6 6 -1 11 2
17 5 13 3 -3 4 -12 1 -19z m208 2 c7 -12 -2 -12 -30 0 -19 8 -19 9 2 9 12 1
25 -3 28 -9z m127 -2 c-6 -7 -12 -26 -15 -43 -4 -28 -4 -27 -6 7 -1 31 6 43
28 47 2 1 -1 -5 -7 -11z m-165 -43 c-9 -8 -22 -15 -29 -15 -7 1 -3 9 11 21 27
22 42 18 18 -6z m-158 6 c10 -7 7 -9 -12 -8 -14 1 -23 5 -20 10 6 9 15 9 32
-2z m251 -7 c0 -8 -5 -12 -10 -9 -6 4 -8 11 -5 16 9 14 15 11 15 -7z m130 -5
c0 -5 -4 -7 -10 -4 -5 3 -10 -2 -10 -11 0 -10 -3 -15 -6 -11 -9 9 3 37 16 37
5 0 10 -5 10 -11z m-435 -17 c-3 -3 -11 0 -18 7 -9 10 -8 11 6 5 10 -3 15 -9
12 -12z m270 7 c12 -19 -5 -23 -22 -6 -16 16 -16 17 -1 17 9 0 20 -5 23 -11z
m-50 -8 c-3 -5 3 -12 12 -14 14 -4 13 -5 -4 -6 -23 -1 -30 9 -16 22 9 10 15 8
8 -2z m-168 -23 c-3 -8 -6 -5 -6 6 -1 11 2 17 5 13 3 -3 4 -12 1 -19z m474 -1
c-10 -9 -11 -8 -5 6 3 10 9 15 12 12 3 -3 0 -11 -7 -18z m-31 -17 c0 -5 -2
-10 -4 -10 -3 0 -8 5 -11 10 -3 6 -1 10 4 10 6 0 11 -4 11 -10z m-483 -32 c-3
-7 -5 -2 -5 12 0 14 2 19 5 13 2 -7 2 -19 0 -25z m40 -20 c-3 -7 -5 -2 -5 12
0 14 2 19 5 13 2 -7 2 -19 0 -25z m651 -25 c2 -15 -2 -23 -11 -23 -8 0 -22
-10 -30 -22 l-16 -23 6 24 c3 13 14 26 25 28 28 8 22 33 -8 33 -14 0 -23 -4
-19 -10 3 -5 -1 -10 -9 -10 -19 0 -21 16 -3 24 28 12 62 1 65 -21z m-708 -3
c0 -5 -5 -10 -11 -10 -5 0 -7 5 -4 10 3 6 8 10 11 10 2 0 4 -4 4 -10z m584
-15 c-4 -8 -14 -15 -24 -15 -10 0 -32 -14 -50 -30 -18 -17 -35 -28 -38 -25 -3
3 4 13 17 21 16 11 19 19 12 28 -8 10 -2 13 26 13 20 0 39 5 41 11 2 7 8 12
13 12 4 0 6 -7 3 -15z m-567 -17 c-3 -8 -6 -5 -6 6 -1 11 2 17 5 13 3 -3 4
-12 1 -19z m68 12 c3 -5 1 -10 -4 -10 -6 0 -11 5 -11 10 0 6 2 10 4 10 3 0 8
-4 11 -10z m541 -35 c-3 -9 -10 -14 -15 -10 -5 3 -12 1 -16 -5 -10 -16 -28
-12 -21 5 3 8 0 15 -6 15 -6 0 -9 3 -5 6 3 3 12 2 19 -2 23 -14 38 -13 38 4 0
8 3 13 6 9 4 -3 4 -13 0 -22z m-109 -52 c2 -6 -17 -18 -43 -27 -56 -19 -54
-19 -54 -6 0 6 9 10 19 10 11 0 22 4 26 10 3 5 13 6 22 3 13 -5 15 -2 10 11
-5 11 -3 16 5 14 6 -2 13 -9 15 -15z m-470 -40 c-3 -10 -5 -4 -5 12 0 17 2 24
5 18 2 -7 2 -21 0 -30z m346 30 c-7 -2 -19 -2 -25 0 -7 3 -2 5 12 5 14 0 19
-2 13 -5z m157 3 c0 -3 -4 -8 -10 -11 -5 -3 -10 -1 -10 4 0 6 5 11 10 11 6 0
10 -2 10 -4z m-553 -98 c-3 -8 -6 -5 -6 6 -1 11 2 17 5 13 3 -3 4 -12 1 -19z
m889 -7 c-4 -6 -13 -11 -19 -10 -9 0 -9 2 0 5 7 3 9 13 6 22 -5 13 -3 14 7 5
7 -6 9 -16 6 -22z m-840 -18 c-11 -11 -17 4 -9 23 7 18 8 18 11 1 2 -10 1 -21
-2 -24z m41 31 c-3 -3 -12 -4 -19 -1 -8 3 -5 6 6 6 11 1 17 -2 13 -5z m-70
-36 c-3 -8 -6 -5 -6 6 -1 11 2 17 5 13 3 -3 4 -12 1 -19z m33 -18 c0 -5 -4
-10 -10 -10 -5 0 -10 5 -10 10 0 6 5 10 10 10 6 0 10 -4 10 -10z m883 -30 c7
0 6 -4 -3 -10 -11 -7 -19 -5 -27 7 -15 20 -17 37 -3 28 6 -3 11 0 11 7 1 7 4
3 6 -9 2 -13 10 -23 16 -23z m-1803 9 c-23 -5 -23 -6 -5 -11 17 -4 16 -5 -2
-3 -15 1 -23 -3 -24 -14 0 -11 -2 -12 -6 -3 -8 19 26 52 45 44 14 -5 12 -7 -8
-13z m887 -21 c-3 -8 -6 -5 -6 6 -1 11 2 17 5 13 3 -3 4 -12 1 -19z m-840 -10
c-3 -8 -6 -5 -6 6 -1 11 2 17 5 13 3 -3 4 -12 1 -19z m869 -15 c-11 -11 -17 4
-9 23 7 18 8 18 11 1 2 -10 1 -21 -2 -24z m894 5 c0 -19 -18 -43 -25 -36 -9 9
4 48 16 48 5 0 9 -6 9 -12z m-1790 -8 c0 -5 -8 -10 -17 -10 -15 0 -16 2 -3 10
19 12 20 12 20 0z m420 0 c0 -5 -4 -10 -10 -10 -5 0 -10 5 -10 10 0 6 5 10 10
10 6 0 10 -4 10 -10z m1407 -16 c-9 -9 -28 6 -21 18 4 6 10 6 17 -1 6 -6 8
-13 4 -17z m-1434 -8 c5 -13 -34 -32 -55 -28 -5 1 -8 -3 -8 -8 0 -6 -9 -14
-19 -18 -11 -4 -43 -27 -71 -51 -50 -43 -50 -44 -33 -64 13 -14 13 -18 3 -12
-38 21 -40 26 -12 52 15 13 49 45 75 70 29 27 53 43 62 39 9 -3 15 0 15 8 0
13 13 23 31 25 4 1 9 -5 12 -13z m484 -21 c-4 -8 -2 -17 3 -20 12 -8 13 -25 1
-25 -5 0 -11 8 -13 18 -5 18 0 42 9 42 3 0 3 -7 0 -15z m937 -4 c3 -5 -3 -11
-14 -14 -20 -5 -26 3 -13 16 9 10 21 9 27 -2z m16 -31 c0 -5 -4 -10 -10 -10
-5 0 -10 5 -10 10 0 6 5 10 10 10 6 0 10 -4 10 -10z m-1651 -46 c14 -12 -19
-1 -35 12 -18 14 -18 14 6 3 14 -6 27 -13 29 -15z m1631 12 c0 -3 -4 -8 -10
-11 -5 -3 -10 -1 -10 4 0 6 5 11 10 11 6 0 10 -2 10 -4z m-1670 -26 c8 -5 11
-10 5 -10 -5 0 -17 5 -25 10 -8 5 -10 10 -5 10 6 0 17 -5 25 -10z m725 -9 c-3
-6 -11 -11 -16 -11 -5 0 -4 6 3 14 14 16 24 13 13 -3z m-602 -18 c-7 -2 -21
-2 -30 0 -10 3 -4 5 12 5 17 0 24 -2 18 -5z m627 -13 c0 -5 -4 -10 -10 -10 -5
0 -10 5 -10 10 0 6 5 10 10 10 6 0 10 -4 10 -10z m-21 -42 c1 -5 -3 -8 -7 -8
-4 0 -8 12 -9 28 -1 23 -1 24 7 7 5 -11 9 -23 9 -27z m-484 22 c3 -5 1 -10 -4
-10 -6 0 -11 5 -11 10 0 6 2 10 4 10 3 0 8 -4 11 -10z m1445 0 c0 -13 -11 -13
-30 0 -12 8 -11 10 8 10 12 0 22 -4 22 -10z m-1383 -6 c-3 -3 -12 -4 -19 -1
-8 3 -5 6 6 6 11 1 17 -2 13 -5z m-73 -34 c7 0 21 -7 32 -15 17 -13 15 -13
-16 -1 -19 8 -35 20 -36 28 -1 9 0 9 3 1 3 -7 10 -13 17 -13z m-234 16 c0 -1
-10 -12 -23 -24 -18 -17 -24 -19 -24 -8 0 8 5 12 10 9 6 -4 8 0 5 8 -4 10 1
15 13 16 10 1 19 1 19 -1z m1683 -3 c-7 -2 -19 -2 -25 0 -7 3 -2 5 12 5 14 0
19 -2 13 -5z m-923 -13 c0 -5 -2 -10 -4 -10 -3 0 -8 5 -11 10 -3 6 -1 10 4 10
6 0 11 -4 11 -10z m920 -10 c12 -8 11 -10 -7 -10 -13 0 -23 5 -23 10 0 13 11
13 30 0z m-923 -32 c-3 -8 -6 -5 -6 6 -1 11 2 17 5 13 3 -3 4 -12 1 -19z
m-437 8 c0 -2 -8 -10 -17 -17 -16 -13 -17 -12 -4 4 13 16 21 21 21 13z m1370
-5 c0 -4 -11 -6 -25 -3 -14 2 -25 6 -25 8 0 2 11 4 25 4 14 0 25 -4 25 -9z
m-20 -23 c0 -4 -4 -8 -9 -8 -6 0 -12 4 -15 8 -3 5 1 9 9 9 8 0 15 -4 15 -9z
m-1232 -26 c-10 -2 -18 -8 -18 -13 0 -5 -7 -9 -15 -9 -13 0 -12 3 2 19 9 12
22 17 32 13 14 -6 14 -7 -1 -10z m285 -46 c-6 -11 -13 -12 -23 -6 -13 8 -12
10 3 10 12 0 17 9 18 33 2 29 2 30 6 5 2 -15 1 -34 -4 -42z m930 20 c-3 -4 -9
-2 -14 5 -13 22 -11 31 5 17 8 -7 12 -17 9 -22z m24 28 c-3 -3 -12 -4 -19 -1
-8 3 -5 6 6 6 11 1 17 -2 13 -5z m-920 -36 c-3 -7 -5 -2 -5 12 0 14 2 19 5 13
2 -7 2 -19 0 -25z m-284 9 c4 3 7 0 7 -7 0 -10 4 -8 13 4 12 16 13 16 14 -4 2
-18 -2 -21 -20 -16 -11 3 -27 0 -34 -6 -10 -8 -13 -5 -11 15 2 18 6 23 14 17
6 -6 14 -7 17 -3z m1187 -41 c0 -6 -5 -5 -11 1 -6 6 -17 9 -24 6 -9 -3 -12 2
-8 15 5 19 6 19 24 4 10 -9 19 -21 19 -26z m-1000 30 c0 -2 -7 -7 -16 -10 -8
-3 -12 -2 -9 4 6 10 25 14 25 6z m100 -78 c0 -21 -3 -38 -7 -38 -5 0 -8 22 -8
49 0 27 3 44 7 38 4 -7 8 -29 8 -49z m874 36 c9 -3 16 -14 15 -23 0 -10 -2
-11 -6 -3 -7 17 -33 15 -33 -4 0 -8 4 -12 10 -9 6 3 7 -1 4 -9 -3 -9 -1 -16 5
-16 6 0 11 -6 11 -14 0 -15 -9 -15 -47 -2 l-22 7 20 40 c12 21 22 39 24 39 2
0 10 -3 19 -6z m-1828 -13 c-4 -5 0 -12 6 -14 8 -3 6 -6 -4 -6 -10 -1 -18 6
-18 14 0 8 5 15 11 15 5 0 8 -4 5 -9z m927 -16 c-7 -21 -13 -19 -13 6 0 11 4
18 10 14 5 -3 7 -12 3 -20z m287 -5 c-8 -5 -19 -10 -25 -10 -5 0 -3 5 5 10 8
5 20 10 25 10 6 0 3 -5 -5 -10z m-43 -16 c-3 -3 -12 -4 -19 -1 -8 3 -5 6 6 6
11 1 17 -2 13 -5z m-1163 -20 c20 -8 9 -34 -15 -34 -18 0 -26 20 -12 33 8 8 8
8 27 1z m1276 -14 c0 -5 -2 -10 -4 -10 -3 0 -8 5 -11 10 -3 6 -1 10 4 10 6 0
11 -4 11 -10z m-363 -37 c-3 -10 -5 -4 -5 12 0 17 2 24 5 18 2 -7 2 -21 0 -30z
m40 -5 c-3 -7 -5 -2 -5 12 0 14 2 19 5 13 2 -7 2 -19 0 -25z m383 11 c0 -4 -7
-6 -15 -3 -8 4 -15 10 -15 15 0 4 7 6 15 3 8 -4 15 -10 15 -15z m447 4 c3 -7
-4 -9 -16 -6 -12 3 -18 9 -15 15 7 11 26 6 31 -9z m-367 -14 c0 -4 7 -6 15 -3
8 4 15 1 15 -6 0 -6 -4 -9 -9 -5 -5 3 -12 1 -15 -4 -3 -5 5 -12 18 -15 23 -6
65 -56 47 -56 -5 0 -13 5 -16 10 -4 6 -16 3 -32 -10 -14 -11 -40 -20 -57 -19
l-31 0 25 11 c14 6 31 10 39 9 7 -1 10 2 6 8 -3 6 -13 11 -21 11 -8 0 -12 4
-9 10 6 11 -42 26 -52 16 -4 -3 3 -6 15 -6 15 0 22 -6 22 -20 0 -13 -6 -20
-17 -19 -11 0 -13 3 -5 6 25 10 11 21 -20 17 -25 -4 -29 -2 -18 5 13 9 13 11
-2 11 -10 0 -18 4 -18 9 0 12 45 22 64 15 11 -4 16 0 16 12 0 15 -2 16 -9 5
-6 -9 -11 -10 -15 -2 -4 6 3 15 16 20 25 9 48 4 48 -10z m-1417 4 c-7 -2 -21
-2 -30 0 -10 3 -4 5 12 5 17 0 24 -2 18 -5z m1144 -18 c1 -14 0 -15 -3 -3 -3
9 -15 19 -27 22 -18 4 -18 4 3 3 17 -1 25 -8 27 -22z m626 -3 c3 8 6 9 6 2 1
-7 -24 -44 -54 -82 -33 -42 -53 -76 -49 -85 3 -8 1 -18 -5 -22 -7 -4 -8 1 -4
12 6 16 5 16 -10 5 -20 -17 -11 -46 12 -37 13 5 14 4 3 -7 -11 -11 -15 -10
-25 3 -7 9 -23 19 -37 23 -19 6 -22 5 -10 -3 16 -12 13 -16 -77 -81 -38 -27
-43 -29 -57 -14 -9 8 -16 12 -16 7 0 -5 5 -14 10 -19 13 -13 -71 -60 -192
-110 -58 -24 -75 -28 -71 -16 4 10 2 13 -5 8 -7 -4 -12 -3 -12 2 0 14 54 36
58 23 2 -6 8 -11 14 -11 6 0 8 6 5 14 -5 13 24 30 46 27 12 -2 8 17 -5 21 -6
2 -37 1 -67 -4 -31 -4 -69 -5 -86 -2 -23 4 -26 3 -15 -5 13 -9 13 -11 -1 -11
-8 0 -20 5 -27 12 -9 9 -12 7 -12 -10 0 -17 -6 -22 -27 -22 -30 1 -89 29 -63
30 13 1 -24 22 -42 24 -10 1 -8 15 4 41 8 19 8 19 5 -1 -5 -24 28 -52 37 -31
6 16 28 -13 21 -30 -6 -18 17 -11 37 10 10 12 37 20 72 24 50 5 56 4 57 -13 1
-17 2 -17 6 -1 4 14 16 17 71 17 79 0 98 2 134 18 40 17 90 64 79 75 -5 5 -81
9 -170 9 -91 0 -161 4 -161 9 0 5 10 9 23 9 13 0 28 5 35 12 9 9 12 9 12 -2 0
-13 2 -13 10 0 7 11 10 11 10 2 0 -10 5 -10 20 -2 15 8 20 8 20 -2 0 -10 2
-10 8 -1 4 7 34 12 75 12 37 0 71 2 76 5 5 3 12 -2 16 -12 7 -16 8 -15 15 3 7
17 9 17 9 3 1 -10 6 -18 11 -18 6 0 10 -6 10 -14 0 -11 5 -12 25 -3 l25 12
-26 11 c-15 6 -22 14 -17 17 5 3 21 0 34 -7 21 -10 27 -10 38 2 11 11 11 16
-2 29 -12 12 -13 21 -5 39 l11 24 24 -22 25 -23 39 44 c22 24 47 57 56 74 14
28 17 29 28 13 10 -13 14 -14 18 -4z m-811 -17 c3 0 10 -4 15 -9 5 -5 -2 -6
-17 -3 -14 4 -29 7 -33 7 -5 0 -5 5 -2 10 4 6 12 7 18 3 7 -4 15 -8 19 -8z
m230 8 c-17 -3 -23 -10 -19 -23 7 -26 -5 -38 -28 -29 -17 6 -17 8 -2 8 11 1
17 9 17 26 0 21 4 25 28 24 24 -2 25 -2 4 -6z m88 -2 c-1 -20 -16 -26 -31 -10
-15 15 -15 17 7 17 13 0 24 -3 24 -7z m-170 -5 c0 -3 -4 -8 -10 -11 -5 -3 -10
-1 -10 4 0 6 5 11 10 11 6 0 10 -2 10 -4z m-191 -19 c12 4 13 3 5 -6 -12 -13
-44 -5 -44 12 0 8 3 8 11 0 6 -6 19 -9 28 -6z m-929 -13 c0 -2 -9 -4 -21 -4
-11 0 -18 4 -14 10 5 8 35 3 35 -6z m1080 4 c0 -4 -7 -8 -15 -8 -8 0 -15 4
-15 8 0 5 7 9 15 9 8 0 15 -4 15 -9z m440 8 c0 -3 -4 -8 -10 -11 -5 -3 -10 -1
-10 4 0 6 5 11 10 11 6 0 10 -2 10 -4z m-399 -20 c-9 -11 -9 -15 1 -19 8 -4 7
-6 -4 -6 -20 -1 -21 0 -12 23 3 9 11 16 16 16 6 0 6 -6 -1 -14z m-161 -11 c-5
-7 -7 -15 -3 -18 3 -4 1 -7 -5 -7 -7 0 -12 8 -12 18 0 10 7 19 15 19 10 0 12
-4 5 -12z m-975 -5 c-28 -12 -37 -12 -30 0 3 6 16 10 28 9 21 0 21 -1 2 -9z
m1558 -17 c-3 -7 -6 -13 -8 -13 -2 0 -5 6 -8 13 -3 8 1 14 8 14 7 0 11 -6 8
-14z m27 -3 c-6 -11 -13 -20 -16 -20 -2 0 0 9 6 20 6 11 13 20 16 20 2 0 0 -9
-6 -20z m-643 -27 c-3 -10 -5 -4 -5 12 0 17 2 24 5 18 2 -7 2 -21 0 -30z m34
-33 c-7 -3 -10 -13 -8 -21 2 -8 2 -11 0 -8 -2 3 -15 4 -30 1 -17 -3 -24 -1
-19 6 4 6 13 9 20 6 9 -3 19 7 27 26 10 22 15 26 17 14 2 -9 -1 -20 -7 -24z
m36 -26 c-3 -3 -12 -4 -19 -1 -8 3 -5 6 6 6 11 1 17 -2 13 -5z m58 -4 c3 -5 1
-18 -5 -27 -9 -16 -10 -15 -5 5 4 12 2 22 -4 22 -5 0 -11 -10 -13 -22 -3 -21
-4 -21 -9 5 -5 21 -3 27 12 27 10 0 21 -4 24 -10z m78 3 c-7 -2 -13 -11 -13
-19 0 -8 -4 -14 -10 -14 -5 0 -10 6 -10 14 0 14 15 24 35 24 6 0 4 -2 -2 -5z
m-1163 -23 c0 -5 -5 -10 -11 -10 -5 0 -7 5 -4 10 3 6 8 10 11 10 2 0 4 -4 4
-10z m943 1 c4 11 6 10 6 -2 1 -9 10 -24 20 -33 21 -19 24 -56 5 -56 -19 0 -3
-42 18 -47 22 -6 23 -11 1 -35 -31 -34 -24 -64 15 -59 6 1 12 -7 12 -19 0 -11
5 -20 11 -20 5 0 7 5 4 10 -3 6 -1 10 4 10 6 0 11 -7 11 -15 0 -9 -9 -15 -25
-15 -14 0 -25 -6 -26 -12 -1 -7 -4 -2 -8 12 -5 17 -16 27 -36 31 -25 5 -27 7
-12 13 23 11 22 45 -4 67 -19 16 -19 20 -7 38 8 12 18 18 23 13 4 -4 4 3 1 15
-4 12 -2 24 4 28 12 7 -5 45 -26 58 -8 4 -14 13 -14 20 0 8 3 8 9 -2 7 -11 9
-11 14 0z m232 -1 c3 -5 1 -10 -4 -10 -6 0 -11 5 -11 10 0 6 2 10 4 10 3 0 8
-4 11 -10z m-155 -16 c0 -2 -7 -4 -15 -4 -8 0 -15 4 -15 10 0 5 7 7 15 4 8 -4
15 -8 15 -10z m718 -14 c-7 -10 -14 -18 -15 -16 -6 6 9 36 18 36 5 0 4 -9 -3
-20z m-1739 -47 c1 -13 -3 -23 -7 -23 -5 0 -9 19 -10 43 0 32 1 37 8 22 5 -11
9 -30 9 -42z m1789 16 c10 -14 10 -18 -2 -22 -10 -4 -13 -1 -9 9 6 17 -8 19
-25 2 -9 -9 -12 -9 -12 0 0 8 33 36 35 29 0 -1 6 -9 13 -18z m-658 -40 c12 -9
11 -10 -7 -6 -13 3 -24 -1 -27 -9 -7 -18 -23 -18 -23 1 0 8 4 12 8 9 4 -2 10
0 14 6 8 13 16 12 35 -1z m670 -5 c0 -8 -19 -13 -24 -6 -3 5 1 9 9 9 8 0 15
-2 15 -3z m-1777 -11 c-7 -2 -19 -2 -25 0 -7 3 -2 5 12 5 14 0 19 -2 13 -5z
m1807 -39 c0 -13 -3 -24 -7 -24 -5 0 -8 13 -8 29 0 16 3 27 8 24 4 -2 7 -15 7
-29z m-1810 16 c-12 -8 -12 -10 5 -10 17 0 17 -2 5 -10 -22 -14 -27 -12 -33
10 -4 15 0 20 16 20 18 0 19 -2 7 -10z m7 -46 c-3 -3 -12 -4 -19 -1 -8 3 -5 6
6 6 11 1 17 -2 13 -5z m1825 -2 c-9 -7 -10 -15 -3 -35 13 -34 6 -34 -15 -1
-15 22 -15 27 -3 35 8 5 19 9 24 9 6 0 4 -4 -3 -8z m-658 -38 c21 -8 21 -24 0
-24 -8 0 -13 4 -10 9 4 5 0 12 -6 14 -7 3 -10 6 -6 6 3 1 13 -2 22 -5z m-1158
-23 c0 -11 -4 -17 -8 -15 -4 3 -8 12 -8 20 0 8 4 14 8 14 4 0 8 -9 8 -19z
m810 7 c5 -7 3 -8 -6 -3 -10 6 -12 4 -6 -10 4 -11 1 -22 -6 -27 -8 -6 -4 -7
12 -3 23 7 24 6 8 -10 -14 -16 -20 -16 -47 -4 -35 16 -38 24 -16 45 8 9 15 11
15 5 0 -6 5 -11 11 -11 6 0 9 7 5 15 -6 18 19 21 30 3z m238 6 c13 -5 14 -9 5
-20 -13 -16 -29 -9 -29 12 0 16 2 16 24 8z m40 -20 c3 -8 2 -12 -4 -9 -6 3
-10 10 -10 16 0 14 7 11 14 -7z m-234 -8 c0 -24 -17 -28 -23 -6 -3 13 0 20 9
20 8 0 14 -6 14 -14z m67 0 c17 3 21 0 17 -11 -4 -9 0 -22 7 -31 10 -12 10
-15 -1 -12 -8 2 -16 -6 -18 -16 -3 -14 0 -17 11 -13 9 3 17 -1 20 -13 4 -16 2
-17 -20 -7 -20 9 -24 17 -21 44 3 29 1 33 -18 33 -16 0 -22 6 -21 19 1 12 5
17 12 12 5 -5 20 -7 32 -5z m-887 -6 c0 -5 -5 -10 -11 -10 -5 0 -7 5 -4 10 3
6 8 10 11 10 2 0 4 -4 4 -10z m1800 -25 c0 -5 -5 -3 -10 5 -5 8 -10 20 -10 25
0 6 5 3 10 -5 5 -8 10 -19 10 -25z m-1150 8 c-56 -21 -82 -34 -77 -40 4 -3 12
-1 20 5 7 6 18 7 25 3 8 -5 -2 -12 -28 -20 -22 -6 -80 -31 -128 -55 -48 -24
-95 -46 -105 -50 -10 -3 -16 -10 -13 -15 4 -5 -5 -8 -19 -7 -13 2 -23 0 -20
-4 2 -3 -5 -13 -17 -21 -11 -8 -26 -20 -34 -27 -8 -8 -15 -9 -19 -2 -3 5 -2
10 4 10 6 0 8 7 4 16 -5 13 -2 15 17 9 19 -6 22 -4 17 9 -4 11 0 19 11 23 9 4
22 13 28 21 7 9 16 12 24 7 9 -5 11 -4 6 3 -4 7 3 14 19 18 14 3 25 9 25 13 0
14 46 29 71 24 18 -3 28 3 42 24 16 25 17 26 11 4 -4 -16 -3 -21 5 -17 6 4 11
13 11 20 0 19 74 54 115 54 14 0 15 -1 5 -5z m1174 -17 c-3 -9 -12 -16 -20
-16 -11 0 -10 4 4 18 20 22 25 21 16 -2z m-1134 4 c0 -5 -4 -10 -10 -10 -5 0
-10 5 -10 10 0 6 5 10 10 10 6 0 10 -4 10 -10z m-30 -10 c0 -5 -4 -10 -10 -10
-5 0 -10 5 -10 10 0 6 5 10 10 10 6 0 10 -4 10 -10z m-660 -10 c0 -5 -2 -10
-4 -10 -3 0 -8 5 -11 10 -3 6 -1 10 4 10 6 0 11 -4 11 -10z m1840 -35 c0 -8
-5 -15 -11 -15 -5 0 -7 -4 -4 -10 3 -5 15 -10 26 -10 10 0 19 -7 19 -15 0 -8
-4 -15 -8 -15 -5 0 -6 -21 -1 -47 4 -27 3 -52 -1 -58 -4 -5 -6 -27 -4 -48 2
-25 0 -35 -8 -31 -7 4 -9 32 -6 78 3 39 3 61 1 49 -3 -13 -8 -23 -13 -23 -9 0
-6 35 5 64 7 15 5 17 -13 11 -25 -7 -28 5 -11 54 11 32 29 42 29 16z m-1789
-24 c7 11 9 11 9 -2 0 -9 -3 -19 -7 -22 -9 -10 -33 13 -33 32 1 13 2 13 11 -3
9 -15 13 -16 20 -5z m859 -20 c0 -3 -7 -14 -14 -24 -12 -16 -14 -16 -20 -2 -4
10 -2 14 5 9 7 -4 9 1 4 15 -5 16 -3 20 9 15 9 -3 16 -9 16 -13z m-101 -49 c0
-24 -1 -25 -8 -7 -5 11 -6 24 -3 29 3 5 -2 7 -11 3 -17 -6 -31 5 -20 16 13 14
43 -15 42 -41z m-735 5 c-9 -5 -18 -6 -21 -3 -4 3 -1 6 5 6 7 0 12 8 12 18 0
14 2 15 10 2 6 -10 4 -17 -6 -23z m653 15 c-17 -4 -17 -5 -1 -30 9 -15 11 -21
3 -14 -7 7 -39 12 -75 12 -37 0 -66 5 -70 12 -5 8 4 10 32 6 21 -3 48 -1 59 3
12 5 -18 8 -77 6 -53 -1 -94 2 -91 6 3 5 50 7 104 6 54 -2 102 0 105 4 4 3 12
3 18 -1 7 -4 4 -8 -7 -10z m202 -36 c-9 -8 -10 -7 -5 7 3 10 7 24 7 30 1 7 3
4 6 -7 3 -10 -1 -23 -8 -30z m-59 25 c0 -5 9 -12 19 -16 20 -6 36 -55 17 -52
-6 1 -11 -6 -11 -15 0 -9 -4 -20 -9 -25 -5 -4 -6 8 -2 28 5 29 2 39 -14 54
-18 16 -23 17 -30 5 -8 -12 -10 -10 -10 8 0 15 6 22 20 22 11 0 20 -4 20 -9z
m-742 -37 c12 -8 11 -12 -5 -25 -17 -13 -17 -13 -3 5 14 17 13 18 -6 12 -19
-6 -21 -3 -16 21 3 18 7 22 10 13 3 -8 12 -20 20 -26z m432 32 c0 -2 -7 -6
-15 -10 -8 -3 -15 -1 -15 4 0 6 7 10 15 10 8 0 15 -2 15 -4z m210 -16 c-8 -5
-17 -7 -19 -4 -3 3 1 9 9 14 8 5 17 7 19 4 3 -3 -1 -9 -9 -14z m-540 -39 c0
-6 -4 -13 -10 -16 -5 -3 -10 -14 -10 -23 0 -15 2 -15 11 -2 8 12 9 11 4 -6 -4
-16 4 -29 31 -53 21 -17 43 -31 51 -31 7 0 13 -9 13 -20 0 -11 -4 -20 -10 -20
-5 0 -10 7 -10 15 0 8 -6 15 -13 15 -7 0 -26 15 -42 34 -28 32 -31 33 -56 20
-15 -7 -29 -19 -32 -26 -3 -7 -4 -2 -4 11 1 14 9 26 19 29 10 2 18 9 18 14 0
6 -12 3 -26 -7 -29 -19 -51 -8 -41 20 5 11 14 14 34 9 27 -6 27 -6 8 9 -11 8
-17 19 -13 23 4 4 15 1 24 -7 14 -11 17 -10 25 4 11 18 29 23 29 8z m694 -48
c4 -10 4 -14 0 -10 -4 4 -13 -1 -21 -11 -11 -15 -12 -13 -2 11 14 32 15 32 23
10z m-44 -22 c0 -5 -7 -12 -16 -15 -14 -5 -15 -4 -4 9 14 17 20 19 20 6z
m-277 -20 c-2 -6 2 -11 7 -11 6 0 10 4 10 9 0 5 7 12 16 15 12 4 15 2 10 -9
-3 -8 -1 -15 4 -15 6 0 10 5 10 10 0 6 7 10 15 10 8 0 15 -8 15 -17 0 -15 2
-14 14 3 12 15 17 17 27 7 11 -11 11 -15 0 -25 -10 -11 -11 -10 -6 5 4 10 2
17 -4 17 -6 0 -11 -7 -11 -16 0 -11 -5 -14 -16 -10 -9 3 -45 6 -80 6 -41 0
-63 4 -59 10 3 6 -1 10 -9 10 -9 0 -16 4 -16 8 0 5 17 8 38 6 20 -1 36 -7 35
-13z m187 9 c0 -5 -4 -10 -10 -10 -5 0 -10 5 -10 10 0 6 5 10 10 10 6 0 10 -4
10 -10z m53 -20 c3 -11 1 -20 -4 -20 -5 0 -10 10 -10 23 l-2 22 -4 -22 c-3
-15 -12 -23 -24 -23 -11 0 -17 5 -14 10 4 6 10 8 15 5 4 -3 10 5 13 16 7 24
22 18 30 -11z m-325 3 c16 -15 17 -14 -25 -18 -25 -2 -33 1 -34 14 0 14 -1 14
-7 1 -8 -18 -19 -19 -49 -2 -15 8 -23 9 -23 2 0 -5 8 -10 18 -10 14 0 14 -2 3
-9 -8 -5 -20 -7 -28 -4 -7 3 -15 -2 -19 -10 -6 -16 49 -80 60 -70 3 4 6 2 6
-4 0 -6 -13 -13 -30 -15 -22 -3 -27 -1 -20 8 14 16 2 44 -15 37 -9 -3 -17 5
-21 23 -5 18 -3 29 4 32 7 2 12 11 12 21 0 15 11 17 77 18 52 0 82 -5 91 -14z
m-381 -9 c-3 -3 -12 -4 -19 -1 -8 3 -5 6 6 6 11 1 17 -2 13 -5z m774 -21 c5
-14 4 -23 -1 -23 -6 0 -10 7 -10 15 0 8 -9 15 -20 15 -11 0 -20 5 -20 11 0 19
43 4 51 -18z m-781 -10 c0 -3 -7 -2 -16 1 -12 4 -15 2 -11 -9 7 -17 -8 -29
-24 -20 -15 10 19 45 37 38 8 -3 14 -7 14 -10z m1742 -78 c2 -12 -4 -21 -16
-23 -16 -3 -18 0 -12 23 5 20 1 31 -16 46 -17 14 -19 18 -5 13 13 -5 20 0 25
17 7 25 8 20 24 -76z m-982 65 c0 -5 -5 -10 -11 -10 -5 0 -7 5 -4 10 3 6 8 10
11 10 2 0 4 -4 4 -10z m27 -32 c-3 -8 -6 -5 -6 6 -1 11 2 17 5 13 3 -3 4 -12
1 -19z m-839 -34 c-4 -3 -12 5 -18 18 -12 22 -12 22 6 6 10 -10 15 -20 12 -24z
m1724 11 c-3 -18 0 -25 12 -25 12 0 13 -5 7 -22 -11 -30 -36 -38 -26 -9 4 13
1 28 -5 36 -10 12 -10 18 0 30 17 20 18 19 12 -10z m-915 -10 c-13 -9 -17 -20
-12 -34 4 -12 2 -21 -4 -21 -6 0 -12 10 -12 23 -1 16 -2 18 -6 5 -7 -29 -31
-22 -25 7 2 14 7 23 11 21 3 -2 17 2 31 9 30 16 42 9 17 -10z m-384 -2 c-7 -2
-19 -2 -25 0 -7 3 -2 5 12 5 14 0 19 -2 13 -5z m47 3 c0 -2 -7 -6 -15 -10 -8
-3 -15 -1 -15 4 0 6 7 10 15 10 8 0 15 -2 15 -4z m215 -13 c-2 -7 0 -13 5 -13
6 0 10 5 10 11 0 5 5 7 10 4 6 -3 10 -1 10 4 0 6 5 11 11 11 6 0 9 -10 7 -22
-3 -21 -9 -23 -70 -26 -41 -2 -68 1 -68 7 0 6 6 8 14 5 8 -3 23 -1 33 6 16 10
16 10 -4 5 -12 -3 -24 -1 -28 5 -8 13 -75 13 -95 0 -11 -8 -8 -9 12 -4 19 4
33 1 43 -10 15 -14 15 -16 1 -16 -9 0 -16 5 -16 10 0 7 -6 7 -17 2 -12 -6 -28
-5 -46 3 l-28 11 23 12 c32 16 200 11 193 -5z m-291 -14 c-3 -5 11 -9 31 -9
23 0 34 -4 30 -11 -4 -6 1 -17 11 -24 11 -8 14 -15 7 -15 -6 0 -15 5 -18 10
-3 6 -13 10 -21 10 -9 0 -23 7 -31 16 -10 9 -25 13 -39 10 -17 -5 -21 -2 -19
12 2 9 4 18 4 18 5 7 49 -11 45 -17z m432 -16 c-11 -11 -17 4 -9 23 7 18 8 18
11 1 2 -10 1 -21 -2 -24z m-886 3 c-5 -13 -6 -27 -3 -30 4 -3 0 -6 -8 -7 -8 0
-6 -4 6 -9 17 -7 17 -9 3 -9 -10 -1 -21 -1 -24 0 -4 0 -11 -5 -15 -13 -7 -10
-9 -9 -9 5 0 9 5 17 10 17 6 0 9 3 8 8 -2 7 31 62 38 62 2 0 -1 -11 -6 -24z
m30 -10 c0 -3 -4 -8 -10 -11 -5 -3 -10 -1 -10 4 0 6 5 11 10 11 6 0 10 -2 10
-4z m530 -6 c0 -5 -4 -10 -9 -10 -6 0 -13 5 -16 10 -3 6 1 10 9 10 9 0 16 -4
16 -10z m63 -27 c23 -7 22 -34 -3 -40 -11 -3 -20 -9 -20 -14 0 -5 -6 -6 -13
-3 -7 2 -13 20 -14 40 -1 29 2 34 16 28 9 -3 24 -9 34 -11z m244 -15 c-3 -7
-5 -2 -5 12 0 14 2 19 5 13 2 -7 2 -19 0 -25z m30 -35 c-3 -10 -5 -2 -5 17 0
19 2 27 5 18 2 -10 2 -26 0 -35z m-898 3 c10 -12 8 -13 -8 -9 -12 3 -21 9 -21
14 0 14 16 11 29 -5z m1775 -2 c4 -10 1 -14 -6 -12 -15 5 -23 28 -10 28 5 0
13 -7 16 -16z m-1091 -8 c21 4 21 4 2 -5 -29 -14 -35 -13 -34 7 0 9 3 12 5 6
3 -7 15 -10 27 -8z m59 7 c-6 -2 -10 -8 -7 -13 3 -4 -2 -10 -10 -14 -17 -6
-18 -4 -9 18 3 9 14 16 23 15 10 0 11 -2 3 -6z m111 -12 c9 6 18 5 22 -1 3 -5
17 -10 31 -10 13 0 24 -4 24 -10 0 -9 -12 -13 -30 -12 -3 0 -3 -31 -2 -70 3
-59 7 -71 23 -75 13 -4 19 -14 18 -32 0 -21 -2 -22 -8 -8 -4 10 -10 18 -14 17
-23 -3 -35 30 -30 81 5 48 4 52 -11 40 -14 -11 -16 -11 -16 3 0 9 7 16 16 16
11 0 14 6 8 23 -8 29 -10 30 -24 22 -8 -5 -8 -10 0 -20 9 -11 6 -13 -17 -9
-15 2 -39 7 -53 11 -14 3 -34 6 -45 5 -18 -2 -18 -1 3 10 12 6 22 14 22 18 0
5 15 4 34 0 18 -4 40 -3 49 1z m907 -33 c0 -5 -8 -8 -17 -8 -15 0 -16 -2 -3
-10 12 -8 11 -10 -7 -10 -15 0 -23 -7 -25 -22 -2 -13 -6 -18 -10 -12 -4 5 5
30 19 53 19 32 28 40 34 30 5 -8 9 -17 9 -21z m-747 3 c5 -1 5 -6 1 -13 -5 -8
-2 -9 9 -5 11 4 17 1 17 -9 0 -11 -6 -13 -22 -8 -13 4 -33 7 -46 6 -14 -1 -20
2 -17 8 4 7 -2 9 -17 7 -12 -2 -17 -2 -10 0 6 3 12 8 12 13 0 7 13 7 73 1z
m67 -23 c0 6 5 12 10 12 6 0 10 -7 10 -16 0 -14 3 -14 15 -4 12 10 15 10 15
-2 0 -23 -9 -27 -42 -17 -38 10 -42 14 -33 29 6 9 10 9 16 -1 6 -10 9 -11 9
-1z m80 -33 c-7 -9 -15 -13 -18 -10 -3 2 1 11 8 20 7 9 15 13 18 10 3 -2 -1
-11 -8 -20z m53 -15 c-3 -11 -7 -20 -9 -20 -2 0 -4 9 -4 20 0 11 4 20 9 20 5
0 7 -9 4 -20z m-23 0 c0 -5 -7 -10 -16 -10 -8 0 -12 5 -9 10 3 6 10 10 16 10
5 0 9 -4 9 -10z m55 0 c-4 -7 3 -8 21 -4 17 5 25 3 21 -3 -4 -6 -20 -13 -35
-15 -24 -3 -28 -1 -24 14 2 10 9 18 14 18 5 0 6 -5 3 -10z m-372 -30 c-7 -28
-13 -25 -13 6 0 14 4 23 9 20 5 -3 7 -15 4 -26z m457 -11 c0 -14 6 -18 23 -16
16 1 21 -3 19 -15 -2 -12 4 -18 18 -18 12 0 20 -7 20 -17 0 -15 2 -14 15 3 15
19 15 19 8 -1 -6 -18 -5 -18 10 -6 17 14 22 5 11 -22 -5 -13 -9 -13 -35 0 -16
8 -39 14 -51 13 -37 -3 -41 -1 -27 17 12 15 12 16 -4 10 -10 -4 -23 -7 -28 -7
-5 0 -10 -8 -10 -17 -1 -17 -2 -17 -6 0 -5 21 -33 23 -33 2 0 -8 -5 -15 -11
-15 -6 0 -9 7 -5 15 3 9 0 15 -8 15 -8 0 -16 -6 -19 -14 -7 -17 -57 -9 -57 9
0 10 -8 11 -31 5 -18 -5 -35 -7 -40 -4 -4 2 -11 -1 -16 -8 -8 -13 -53 -20 -53
-8 0 9 23 30 33 30 4 0 5 -4 2 -10 -3 -5 -1 -10 4 -10 6 0 11 4 11 9 0 5 21
11 48 13 34 3 51 0 60 -12 8 -8 11 -9 7 -2 -5 9 11 12 64 12 80 0 93 15 39 43
l-33 18 34 -6 c29 -4 32 -3 21 10 -11 13 -10 14 4 9 9 -3 16 -15 16 -25z m382
24 c-6 -3 -10 -8 -7 -13 3 -4 -4 -6 -15 -3 -29 8 -24 21 8 20 15 0 21 -2 14
-4z m-1783 -50 c1 -7 -6 -13 -15 -13 -10 0 -12 4 -7 13 4 6 7 21 5 32 l-2 20
9 -20 c5 -11 10 -26 10 -32z m1771 9 c3 -3 -8 -2 -24 2 -26 6 -28 5 -17 -8 11
-13 9 -20 -11 -45 -23 -26 -26 -27 -36 -11 -14 22 3 39 33 34 18 -2 18 -1 4 9
-25 19 -2 49 25 35 12 -6 23 -13 26 -16z m-827 -31 c3 -15 0 -19 -14 -18 -22
1 -24 8 -7 25 15 15 15 15 21 -7z m-954 -26 c5 2 11 -6 13 -19 3 -15 -2 -27
-14 -35 -10 -6 -18 -21 -18 -32 0 -17 5 -20 25 -17 22 5 25 3 19 -16 -10 -31
-12 -31 -38 -7 -21 20 -23 27 -15 62 5 22 7 52 3 67 -4 23 -4 24 6 9 6 -9 15
-15 19 -12z m41 16 c0 -6 -4 -13 -10 -16 -5 -3 -10 1 -10 9 0 9 5 16 10 16 6
0 10 -4 10 -9z m1053 -8 c-4 -10 -9 -11 -19 -2 -8 7 -17 9 -21 5 -3 -3 -1 -6
5 -6 19 0 14 -16 -6 -17 -11 -1 -18 5 -18 17 0 15 7 19 32 18 23 -1 31 -5 27
-15z m-95 -17 c-2 -15 -9 -20 -23 -18 -16 2 -17 1 -5 -7 8 -5 11 -13 7 -17 -4
-5 -17 2 -29 14 -18 18 -19 22 -6 22 9 0 18 6 21 13 9 23 38 16 35 -7z m232 4
c0 -5 -5 -10 -11 -10 -5 0 -7 5 -4 10 3 6 8 10 11 10 2 0 4 -4 4 -10z m441
-44 c-13 -14 -20 -29 -16 -35 3 -6 1 -11 -4 -11 -6 0 -11 7 -11 15 0 8 -8 15
-19 15 -10 0 -24 7 -31 15 -11 13 -15 13 -21 3 -7 -10 -11 -10 -21 0 -9 9 -9
12 1 12 8 0 11 6 7 15 -8 21 4 19 31 -7 23 -21 23 -21 45 -2 19 16 21 16 9 1
-11 -14 -11 -21 -3 -29 9 -9 12 -8 12 5 0 9 8 17 17 17 13 0 14 3 5 12 -7 7
-12 17 -12 22 0 6 8 3 17 -7 16 -16 15 -18 -6 -41z m-70 -19 c9 -7 21 -23 28
-37 11 -23 11 -24 -3 -6 -16 19 -16 19 -38 -1 -13 -11 -30 -23 -38 -27 -8 -4
1 6 20 22 19 17 32 34 27 38 -4 4 -16 -1 -27 -12 -49 -46 -56 -52 -78 -59 -14
-4 -21 -12 -18 -21 3 -7 0 -16 -6 -20 -7 -4 -8 -3 -4 4 4 7 1 12 -8 12 -9 0
-16 -8 -16 -17 0 -15 -2 -16 -10 -3 -8 12 -12 12 -18 2 -5 -7 -24 -15 -41 -17
-18 -2 -39 -10 -47 -16 -8 -6 -14 -7 -14 -2 0 5 16 17 35 26 43 20 48 21 39 5
-4 -8 -3 -10 2 -5 5 5 9 12 9 15 0 4 4 13 8 20 6 8 1 12 -17 12 -30 0 -32 7
-11 34 13 17 15 18 15 3 0 -9 7 -17 16 -17 8 0 12 5 9 10 -3 6 3 10 14 10 15
0 19 -4 14 -17 -6 -16 -5 -16 10 -5 9 8 21 11 27 7 5 -3 10 -2 10 4 0 5 -6 12
-12 15 -7 4 1 4 17 2 31 -4 75 21 75 43 0 14 11 13 31 -2z m-596 -37 c8 0 15
-4 15 -10 0 -5 -6 -7 -14 -4 -10 4 -16 -3 -19 -18 -3 -17 -4 -16 -2 5 1 22 -3
27 -20 27 -12 0 -24 -3 -28 -6 -9 -10 4 -34 19 -34 8 0 14 -10 14 -26 0 -14
-4 -23 -9 -19 -5 3 -12 -5 -14 -17 -4 -20 -4 -19 -6 5 0 15 4 27 9 27 6 0 2
10 -10 22 -27 29 -25 42 7 68 l27 21 8 -20 c4 -12 14 -21 23 -21z m675 -15
c-7 -9 -15 -13 -17 -11 -7 7 7 26 19 26 6 0 6 -6 -2 -15z m-630 -7 c0 -9 4 -8
10 2 11 17 13 9 4 -14 -5 -13 -9 -14 -20 -5 -16 13 -18 29 -4 29 6 0 10 -6 10
-12z m88 0 c-2 -7 8 -13 22 -15 14 -1 17 1 8 3 -32 9 -19 24 20 23 20 -1 29
-3 20 -6 -10 -2 -18 -9 -18 -14 0 -6 9 -7 20 -4 11 4 20 2 20 -4 0 -18 -87
-13 -106 6 -13 13 -19 14 -22 5 -5 -17 -22 -15 -22 3 0 10 10 15 30 15 18 0
29 -5 28 -12z m168 -5 c10 -13 12 -13 9 -3 -4 11 2 15 21 17 17 1 22 -2 14 -7
-7 -4 -9 -13 -6 -19 5 -8 -11 -11 -51 -11 -41 0 -54 3 -43 10 13 8 12 10 -2
10 -10 0 -18 5 -18 10 0 17 62 11 76 -7z m-286 -13 c0 -5 -5 -10 -11 -10 -5 0
-7 5 -4 10 3 6 8 10 11 10 2 0 4 -4 4 -10z m725 -29 c-6 -5 -25 10 -25 20 0 5
6 4 14 -3 8 -7 12 -15 11 -17z m-1736 -37 c0 11 4 17 7 13 3 -3 2 -21 -2 -39
l-8 -33 -11 50 c-7 28 -9 55 -6 60 3 6 9 -8 12 -30 3 -22 7 -31 8 -21z m1757
-3 c-4 -6 -15 -11 -24 -10 -11 0 -12 3 -4 6 6 2 12 12 12 21 0 12 3 13 11 5 6
-6 8 -16 5 -22z m15 -34 c-8 -8 -14 -7 -23 2 -11 11 -10 13 0 7 7 -4 15 0 19
10 5 12 8 14 11 5 2 -7 -1 -18 -7 -24z m-495 8 c-23 -17 -36 -19 -36 -6 0 5 8
12 18 14 32 9 37 6 18 -8z m-306 -5 c0 -13 -11 -13 -30 0 -12 8 -11 10 8 10
12 0 22 -4 22 -10z m-955 -32 c-5 -26 -4 -30 5 -18 9 12 10 11 5 -8 -4 -13 -1
-29 5 -37 8 -9 8 -15 2 -15 -15 0 -33 59 -26 86 9 36 17 29 9 -8z m1205 -10
c-24 -20 -40 -23 -40 -9 0 5 9 13 20 16 11 3 20 11 20 18 0 8 -3 8 -12 -1 -7
-7 -16 -12 -22 -12 -5 0 -1 6 10 14 14 11 22 12 32 3 12 -9 10 -14 -8 -29z
m576 5 c-11 -11 -19 6 -11 24 8 17 8 17 12 0 3 -10 2 -21 -1 -24z m-835 -33
c13 -7 19 -7 19 0 0 5 14 10 30 10 22 0 30 -5 29 -17 0 -11 -3 -13 -6 -5 -6
16 -21 15 -39 -3 -10 -9 -25 -13 -39 -9 -12 3 -26 1 -29 -4 -7 -12 -46 -4 -46
9 0 5 13 9 28 9 25 0 28 3 26 33 -1 17 1 22 3 9 2 -12 13 -27 24 -32z m9 25
c0 -8 -4 -15 -10 -15 -5 0 -10 7 -10 15 0 8 5 15 10 15 6 0 10 -7 10 -15z
m200 0 c0 -8 -9 -19 -20 -25 -15 -8 -20 -8 -20 2 0 10 -2 10 -9 -1 -5 -8 -18
-12 -30 -8 -12 3 -19 1 -15 -4 3 -5 -2 -9 -10 -9 -9 0 -16 8 -16 18 0 13 12
22 38 29 55 16 82 15 82 -2z m644 -25 c-6 -30 9 -43 20 -17 3 6 3 2 1 -10 -4
-12 3 -35 15 -55 11 -18 20 -27 20 -19 0 8 2 12 5 9 9 -8 -6 -38 -16 -32 -5 3
-9 -1 -10 -8 0 -7 -4 -3 -9 10 -5 12 -6 30 -3 39 4 9 2 14 -3 10 -14 -8 -37
58 -29 83 10 30 15 24 9 -10z m-970 -2 c-6 -10 -4 -10 7 0 20 18 31 15 24 -8
-5 -15 0 -23 20 -32 22 -10 23 -13 10 -20 -8 -5 -20 -6 -27 -2 -7 4 -8 3 -4
-4 5 -8 -4 -12 -29 -12 -22 0 -34 4 -30 10 4 6 11 7 17 4 6 -4 8 -2 4 4 -3 6
-2 13 3 16 5 4 12 -2 15 -11 4 -14 4 -14 3 2 -2 21 -47 36 -47 16 0 -14 -37
-14 -45 -1 -3 6 5 10 19 10 15 0 30 8 36 20 6 11 15 20 21 20 6 0 7 -6 3 -12z
m122 -43 c9 -8 11 -15 5 -15 -6 0 -11 -8 -11 -17 0 -15 -2 -14 -15 3 -28 37
-11 61 21 29z m41 9 c-3 -3 -12 -4 -19 -1 -8 3 -5 6 6 6 11 1 17 -2 13 -5z
m-939 -51 c-14 -13 -16 -13 -22 2 -3 9 -2 14 4 10 6 -3 13 2 17 11 5 13 8 14
11 5 2 -7 -2 -20 -10 -28z m668 21 c18 -14 18 -14 -6 -3 -31 14 -36 19 -24 19
6 0 19 -7 30 -16z m-35 -4 c6 0 8 -4 5 -9 -8 -12 -46 -2 -46 11 0 6 7 7 16 4
9 -3 20 -6 25 -6z m257 -31 c15 -1 15 -2 0 -6 -19 -5 -25 -23 -8 -23 16 0 12
-40 -5 -46 -8 -4 -15 -17 -15 -31 0 -13 4 -22 10 -18 5 3 7 12 3 20 -3 9 1 15
10 15 8 0 18 7 21 16 7 19 26 9 26 -14 0 -14 -2 -15 -10 -2 -7 11 -11 8 -21
-15 -16 -40 -11 -86 12 -111 24 -25 24 -42 1 -68 -10 -12 -26 -40 -36 -63 -17
-38 -17 -43 -3 -58 15 -14 18 -13 33 10 16 24 16 27 -2 41 -19 14 -19 15 1 12
11 -2 21 -12 23 -22 5 -25 -18 -66 -37 -66 -12 0 -12 -3 -3 -12 7 -7 12 -34
12 -60 0 -46 1 -48 30 -48 17 0 33 -7 39 -17 9 -16 10 -16 11 -2 0 15 6 15 68
3 102 -20 103 -20 188 -49 100 -34 151 -64 132 -77 -9 -7 -7 -8 8 -4 22 7 92
-26 148 -69 32 -24 66 -33 66 -17 0 4 17 25 38 47 20 22 38 43 39 48 5 27 12
31 23 17 9 -12 10 -11 5 6 -6 22 29 94 46 94 5 0 4 11 -1 25 -8 20 -6 25 6 25
8 0 12 5 9 10 -3 6 -2 10 4 10 5 0 12 -8 14 -17 4 -14 5 -13 6 4 0 12 -2 23
-6 25 -5 2 -1 32 8 68 9 37 19 58 22 50 4 -10 6 -8 4 5 -1 11 2 26 7 34 6 10
5 12 -2 7 -9 -5 -12 19 -11 91 1 67 4 88 9 68 8 -30 8 -30 9 -3 2 38 -9 64
-20 46 -12 -18 -10 31 2 57 8 17 9 16 6 -7 -3 -16 0 -28 4 -28 5 0 9 -8 10
-17 0 -17 1 -17 7 -1 4 9 7 -48 7 -127 0 -79 -3 -138 -8 -132 -4 7 -5 -8 -2
-33 3 -34 2 -39 -4 -20 -9 25 -9 25 -10 2 -1 -13 -5 -21 -10 -17 -5 3 -13 0
-17 -6 -4 -8 -3 -9 4 -5 7 4 12 1 12 -9 0 -9 -4 -14 -9 -11 -12 8 0 -48 13
-57 7 -5 4 -14 -11 -26 -13 -11 -23 -25 -23 -32 0 -7 -6 -20 -14 -28 -7 -9
-18 -29 -23 -46 -6 -16 -16 -29 -22 -27 -7 1 -10 -1 -7 -6 3 -4 -13 -32 -34
-60 -22 -29 -46 -68 -54 -87 -12 -27 -21 -35 -40 -35 -15 0 -26 5 -26 10 0 6
-7 10 -15 10 -9 0 -15 10 -15 26 0 20 -4 25 -16 20 -22 -9 -155 5 -148 15 3 5
0 9 -5 9 -6 0 -11 -5 -11 -11 0 -7 -52 -9 -167 -6 -93 3 -190 2 -218 -2 -49
-6 -50 -7 -53 -44 -3 -33 0 -38 25 -48 42 -16 439 -7 472 11 11 5 36 10 56 10
36 0 36 -1 30 -32 -13 -60 -23 -71 -61 -63 -19 3 -34 2 -34 -3 0 -9 -63 -42
-80 -42 -6 0 -29 -8 -53 -19 -23 -10 -61 -24 -83 -30 -23 -6 -47 -18 -54 -26
-13 -16 -50 -21 -50 -6 0 5 -20 8 -45 7 -25 0 -45 -5 -45 -9 0 -5 -4 -6 -9 -3
-5 3 -23 3 -40 0 -28 -6 -31 -10 -31 -47 0 -24 6 -44 15 -51 13 -10 13 -14 0
-40 -20 -38 -19 -53 6 -59 16 -4 20 -12 17 -34 -2 -24 -8 -28 -36 -31 -26 -3
-34 1 -41 20 -5 13 -5 29 -1 37 12 22 0 49 -23 55 -12 3 -69 6 -127 6 -79 0
-111 -4 -127 -15 -18 -13 -26 -13 -42 -3 -28 17 -32 31 -15 63 18 35 18 60 -1
89 -14 21 -14 25 5 49 19 24 45 27 60 7 12 -17 48 -20 60 -5 15 18 64 20 78 2
7 -8 29 -11 69 -7 l58 5 5 53 c5 44 3 53 -12 58 -20 6 -24 30 -7 36 6 2 15 26
19 53 7 43 5 52 -12 63 -18 13 -18 16 -4 31 12 13 16 37 14 99 -1 69 -4 83
-20 88 -16 5 -22 16 -19 37 0 4 -4 7 -10 7 -6 0 -8 -9 -4 -20 7 -24 -7 -26
-28 -5 -10 9 -17 11 -19 4 -2 -6 -16 0 -33 13 -16 12 -26 17 -22 11 4 -6 3
-14 -2 -17 -5 -4 -12 -2 -16 3 -3 6 -13 8 -23 5 -14 -5 -15 -4 -2 5 8 5 11 13
7 17 -3 4 -12 2 -20 -4 -22 -19 -57 -3 -57 25 0 20 4 24 18 18 32 -14 165 -44
206 -47 l41 -3 -1 45 c0 57 -10 100 -25 114 -8 8 -10 5 -4 -11 5 -19 2 -23
-14 -23 -12 0 -21 6 -21 16 0 8 -5 12 -10 9 -6 -4 -8 -10 -5 -14 2 -5 -27 -9
-64 -10 -65 -2 -69 0 -64 19 3 11 9 20 14 20 5 0 6 -8 3 -17 -5 -17 -5 -17 9
0 16 19 67 23 67 5 0 -6 7 -3 15 8 15 19 15 19 35 -5 l20 -23 0 26 c0 19 6 27
25 32 35 9 42 40 14 70 -14 15 -25 20 -29 14 -4 -7 -11 -6 -20 5 -16 19 -31
20 -24 0 6 -16 -12 -20 -40 -9 -23 9 -20 27 4 21 13 -3 20 0 20 10 0 8 -5 11
-12 7 -7 -4 -10 -3 -6 1 5 5 19 10 33 11 17 2 25 -2 25 -14 0 -13 2 -13 14 3
8 11 20 16 33 13 19 -5 20 -2 16 36 -3 22 -9 45 -14 51 -5 5 -9 18 -9 30 0 16
-2 17 -10 5 -12 -19 -50 -22 -43 -3 4 10 9 11 19 2 11 -9 14 -8 14 4 0 8 -6
18 -12 20 -7 3 3 6 22 6 l35 1 -2 48 c-1 26 0 39 3 30 3 -10 13 -19 22 -19z
m-864 -13 c-3 -9 -12 -16 -20 -16 -11 0 -10 4 4 18 20 22 25 21 16 -2z m566
15 c0 -9 -41 -23 -49 -16 -3 4 28 20 47 24 1 1 2 -3 2 -8z m-72 -28 c-8 -7
-22 -11 -31 -7 -25 9 -21 27 4 19 14 -5 19 -4 15 4 -5 7 -1 9 9 5 14 -6 15 -9
3 -21z m-477 -26 c-10 -9 -11 -8 -5 6 3 10 9 15 12 12 3 -3 0 -11 -7 -18z
m399 12 c-11 -8 -8 -9 13 -4 19 4 26 2 22 -5 -3 -5 -17 -10 -31 -10 -13 0 -24
-4 -24 -10 0 -5 9 -10 20 -10 13 0 17 -5 14 -14 -6 -14 -36 -32 -31 -18 1 4
-2 8 -8 9 -5 0 -9 -3 -7 -8 3 -13 -16 -11 -20 3 -2 6 -18 11 -36 11 -30 0 -31
1 -14 17 15 15 20 15 39 3 22 -14 30 -10 28 17 0 8 6 18 15 22 24 11 37 9 20
-3z m-50 -19 c0 -5 -4 -10 -10 -10 -5 0 -10 5 -10 10 0 6 5 10 10 10 6 0 10
-4 10 -10z m1437 -22 c-3 -7 -5 -2 -5 12 0 14 2 19 5 13 2 -7 2 -19 0 -25z
m-1771 3 c15 12 17 12 12 -1 -2 -8 -13 -15 -23 -15 -10 0 -20 7 -22 15 -4 13
-3 13 5 1 9 -13 13 -13 28 0z m449 -1 c-4 -6 9 -10 32 -9 30 0 34 2 18 9 -18
8 -17 9 8 9 16 1 26 -3 22 -9 -3 -5 -1 -10 4 -10 6 0 11 -8 10 -17 0 -11 -3
-13 -6 -5 -3 8 -26 12 -64 12 -48 0 -57 3 -53 15 4 8 13 15 21 15 8 0 11 -4 8
-10z m122 4 c-3 -3 -12 -4 -19 -1 -8 3 -5 6 6 6 11 1 17 -2 13 -5z m123 -1
c-1 -18 -19 -35 -29 -29 -6 4 -9 12 -6 17 3 5 -8 7 -25 5 -17 -2 -33 0 -36 5
-3 5 18 9 45 9 28 0 51 -3 51 -7z m24 -8 c-4 -8 -8 -15 -10 -15 -2 0 -4 7 -4
15 0 8 4 15 10 15 5 0 7 -7 4 -15z m-673 -58 c-10 -9 -11 -8 -5 6 3 10 9 15
12 12 3 -3 0 -11 -7 -18z m167 13 c-2 -5 2 -9 7 -7 6 1 9 4 8 7 -1 3 10 6 23
6 13 1 24 0 24 -2 0 -1 -30 -25 -67 -51 -67 -48 -67 -48 -38 -54 17 -3 34 -2
40 3 15 13 35 9 35 -6 0 -8 -8 -17 -17 -19 -12 -3 -8 -5 9 -6 20 -1 25 3 21
17 -3 13 2 18 16 18 24 0 27 -12 7 -32 -16 -16 -76 -19 -76 -4 0 6 -10 9 -22
9 -17 -1 -18 -3 -6 -6 17 -4 35 -40 25 -50 -3 -2 -15 5 -26 16 -23 23 -47 29
-35 9 5 -7 -5 -3 -20 10 -35 27 -41 27 -67 3 -15 -14 -17 -21 -8 -26 8 -6 10
-4 4 5 -5 8 -4 11 3 6 6 -3 15 2 21 11 5 10 12 15 16 11 10 -9 -65 -77 -80
-72 -6 3 -18 -2 -25 -11 -7 -9 -8 -15 -2 -15 6 0 12 6 15 13 2 6 8 9 12 5 10
-9 -24 -50 -35 -43 -7 5 -21 -17 -25 -40 -5 -27 -8 -28 -15 -5 -8 24 -8 24 -9
3 -1 -14 -8 -23 -18 -24 -17 -1 -17 -2 0 -6 9 -2 17 -9 17 -14 0 -13 -16 -11
-29 5 -12 14 -5 46 10 46 5 0 9 7 9 16 0 8 -5 12 -11 8 -7 -4 -9 1 -7 12 3 13
11 18 26 17 16 -2 33 9 55 35 17 20 47 52 65 71 30 31 31 35 17 51 -16 17 -20
42 -8 53 4 4 19 -5 35 -20 26 -25 29 -25 46 -10 10 9 24 17 30 17 7 0 12 5 12
11 0 5 4 8 9 5 5 -3 11 3 14 14 3 11 8 20 11 20 3 0 5 -4 4 -10z m1579 -162
c-2 -18 -4 -6 -4 27 0 33 2 48 4 33 2 -15 2 -42 0 -60z m-1315 58 c6 -8 8 -8
8 0 0 8 31 12 91 13 80 1 90 0 80 -13 -7 -8 -10 -19 -7 -24 3 -5 -8 -9 -24 -8
-16 0 -32 6 -34 13 -3 7 -14 9 -27 6 -22 -6 -22 -7 -3 -14 18 -7 18 -8 -1 -8
-12 -1 -26 4 -33 11 -9 9 -12 9 -12 -1 0 -11 -3 -11 -16 0 -13 10 -17 10 -25
-2 -6 -10 -9 -10 -9 -1 0 6 -8 12 -17 12 -15 0 -16 -2 -3 -10 12 -8 11 -10 -7
-10 -12 0 -24 6 -26 13 -4 9 -8 9 -15 -2 -7 -9 -12 -10 -16 -2 -4 6 -12 8 -18
5 -6 -4 -14 0 -19 7 -7 11 -9 11 -9 -2 0 -9 -7 -16 -15 -16 -8 0 -15 9 -15 19
0 11 5 16 10 13 6 -3 10 -1 10 5 0 15 142 11 152 -4z m-182 -121 c11 -4 17
-11 14 -17 -5 -7 5 -9 30 -4 24 5 36 3 36 -4 0 -6 -4 -8 -10 -5 -6 4 -7 -1 -3
-11 6 -16 8 -15 16 4 11 25 27 29 27 7 0 -8 6 -15 14 -15 22 0 29 18 9 23 -10
2 -2 4 17 4 19 0 38 -5 42 -11 5 -8 8 -7 8 2 0 6 4 12 9 12 6 0 9 -9 8 -20 -1
-21 -14 -25 -36 -11 -9 6 -19 4 -30 -6 -13 -14 -13 -17 5 -29 10 -7 24 -18 31
-24 7 -5 19 -10 28 -10 8 0 15 -9 15 -20 0 -12 -7 -20 -16 -20 -10 0 -14 6
-10 15 4 10 -1 15 -15 15 -12 0 -18 -4 -13 -11 4 -7 1 -10 -7 -7 -8 3 -13 13
-13 22 2 17 -26 28 -61 23 -14 -1 -19 3 -17 16 2 14 -2 17 -25 12 -15 -3 -22
-2 -15 1 23 11 12 24 -15 18 -23 -4 -25 -3 -13 6 12 10 11 11 -7 7 -25 -6 -29
3 -11 21 7 7 8 12 2 12 -5 0 -15 -5 -22 -12 -9 -9 -15 -9 -24 0 -9 9 -9 12 0
12 7 0 12 5 12 10 0 14 -28 12 -32 -2 -3 -7 -7 -5 -11 6 -4 11 -3 15 4 10 8
-4 9 1 4 17 -8 23 -7 23 24 -3 17 -15 40 -30 51 -33z m251 -24 c-7 -5 -10 -14
-7 -20 4 -6 2 -11 -3 -11 -12 0 -15 23 -4 33 3 4 11 7 17 7 6 0 5 -4 -3 -9z
m32 -11 c-3 -11 -9 -20 -14 -20 -11 0 -11 3 -3 24 9 23 23 20 17 -4z m-614
-71 c-24 -15 -30 -10 -11 9 9 10 19 14 21 9 2 -5 -3 -13 -10 -18z m-654 -1954
l0 -320 -34 -3 c-20 -2 -37 2 -42 9 -10 16 -12 623 -2 632 4 5 23 6 43 4 l35
-3 0 -319z m1405 305 c37 -37 18 -82 -35 -82 -54 0 -75 57 -33 86 30 21 44 20
68 -4z m880 -70 l0 -91 38 8 c20 4 67 8 104 8 60 0 70 -3 97 -29 17 -17 36
-46 41 -65 5 -20 10 -116 10 -214 l0 -178 -37 3 -38 3 -6 190 c-3 105 -6 191
-7 193 -1 2 -19 10 -39 18 -27 12 -53 14 -100 9 l-63 -7 -2 -201 -3 -202 -37
-3 -38 -3 0 319 c0 175 3 322 7 325 3 4 21 7 40 7 l33 0 0 -90z m600 -20 l0
-59 67 -3 c65 -3 68 -4 68 -28 0 -24 -4 -25 -65 -30 l-65 -5 -3 -130 c-5 -197
8 -223 108 -213 39 3 40 3 40 -29 0 -39 -22 -48 -106 -41 -104 9 -123 52 -124
270 l0 136 -40 7 c-36 6 -40 10 -40 36 0 27 2 29 40 29 l40 0 0 53 c0 30 3 57
7 60 3 4 21 7 40 7 l33 0 0 -60z m-2333 -76 c53 -39 58 -62 58 -269 l0 -190
-35 0 -35 0 -5 180 c-6 199 -11 217 -67 229 -18 4 -57 4 -88 1 l-55 -7 -2
-202 -3 -201 -37 -3 -38 -3 0 230 c0 178 3 231 13 232 6 0 39 7 72 14 85 20
187 15 222 -11z m523 13 c41 -11 45 -15 45 -42 0 -26 -4 -30 -25 -28 -167 16
-174 16 -193 -5 -10 -11 -17 -31 -15 -43 3 -23 15 -31 167 -118 67 -37 86 -66
85 -123 -2 -48 -41 -93 -93 -108 -39 -11 -158 -11 -206 -1 -26 5 -30 11 -33
45 -3 34 -1 38 15 31 52 -20 133 -28 173 -16 44 13 74 48 64 75 -3 9 -50 40
-103 70 -140 80 -161 105 -147 179 15 82 133 118 266 84z m887 -8 l32 -13 -5
-271 c-3 -148 -7 -280 -10 -292 -7 -35 -61 -91 -102 -104 -49 -17 -212 -14
-230 4 -8 9 -11 23 -6 41 5 23 10 26 28 21 39 -13 151 -17 178 -6 36 14 55 46
64 107 l6 51 -76 -5 c-126 -8 -192 30 -231 132 -26 68 -17 188 18 249 28 48
69 83 115 98 36 12 179 4 219 -12z m-562 -229 l0 -235 -32 -3 -33 -3 0 241 0
241 33 -3 32 -3 0 -235z m-24 -795 c64 -158 105 -273 100 -278 -5 -5 -22 -6
-39 -3 -25 6 -33 17 -57 79 -16 40 -33 78 -38 85 -7 9 -38 12 -115 10 l-104
-3 -31 -82 c-30 -80 -31 -81 -69 -85 -21 -2 -38 -1 -38 3 0 6 165 424 198 500
18 42 23 47 52 45 l32 -1 109 -270z m394 -272 c-2 -7 -18 -13 -35 -13 l-30 0
0 274 0 275 33 3 32 3 3 -265 c1 -146 0 -270 -3 -277z m-1094 281 c9 -11 10
-21 3 -31 -10 -16 -4 -15 -354 -14 -94 1 -100 2 -100 22 0 19 5 20 89 18 49
-1 94 2 100 6 7 4 20 4 29 0 25 -10 196 -5 200 6 5 14 18 11 33 -7z m1493 7
c8 -13 163 -13 187 -1 15 9 24 8 35 0 9 -8 45 -11 106 -9 78 3 93 2 93 -11 0
-20 -55 -25 -262 -25 -90 0 -163 -3 -163 -7 0 -12 -13 -9 -35 8 -14 11 -16 18
-7 21 6 3 12 11 12 19 0 15 26 19 34 5z"/>
<path d="M5055 8019 c-4 -6 -5 -12 -2 -15 2 -3 7 2 10 11 7 17 1 20 -8 4z"/>
<path d="M4140 6760 c0 -5 5 -10 10 -10 6 0 10 5 10 10 0 6 -4 10 -10 10 -5 0
-10 -4 -10 -10z"/>
<path d="M5892 6670 c-7 -11 -10 -20 -6 -20 7 0 34 27 34 34 0 13 -16 5 -28
-14z"/>
<path d="M5852 6628 c-7 -7 -12 -15 -12 -20 0 -12 28 2 34 18 7 17 -6 18 -22
2z"/>
<path d="M5748 6584 c-8 -12 17 -46 26 -37 4 4 11 1 16 -7 6 -8 10 -10 10 -4
0 14 -30 40 -31 28 0 -5 -4 0 -8 10 -4 11 -10 15 -13 10z"/>
<path d="M5820 6568 c-12 -22 -12 -22 6 -6 10 10 15 20 12 24 -4 3 -12 -5 -18
-18z"/>
<path d="M5558 6513 c7 -3 16 -2 19 1 4 3 -2 6 -13 5 -11 0 -14 -3 -6 -6z"/>
<path d="M5643 6444 c-14 -15 -3 -27 14 -16 7 4 9 13 5 19 -5 8 -11 7 -19 -3z"/>
<path d="M5550 6379 c0 -5 5 -7 10 -4 6 3 10 8 10 11 0 2 -4 4 -10 4 -5 0 -10
-5 -10 -11z"/>
<path d="M5517 6369 c7 -7 15 -10 18 -7 3 3 -2 9 -12 12 -14 6 -15 5 -6 -5z"/>
<path d="M5365 6290 c4 -6 11 -8 16 -5 14 9 11 15 -7 15 -8 0 -12 -5 -9 -10z"/>
<path d="M5070 6359 c0 -6 7 -17 15 -25 16 -16 19 -7 9 20 -7 18 -24 22 -24 5z"/>
<path d="M4908 6223 c7 -3 16 -2 19 1 4 3 -2 6 -13 5 -11 0 -14 -3 -6 -6z"/>
<path d="M4625 6120 c-3 -5 -1 -10 4 -10 6 0 11 5 11 10 0 6 -2 10 -4 10 -3 0
-8 -4 -11 -10z"/>
<path d="M4990 5626 c0 -2 7 -6 15 -10 8 -3 15 -1 15 4 0 6 -7 10 -15 10 -8 0
-15 -2 -15 -4z"/>
<path d="M5270 5136 c0 -2 7 -6 15 -10 8 -3 15 -1 15 4 0 6 -7 10 -15 10 -8 0
-15 -2 -15 -4z"/>
<path d="M5094 4776 c-3 -14 -3 -33 0 -43 6 -14 8 -14 21 3 18 24 19 39 0 54
-12 10 -15 7 -21 -14z"/>
<path d="M6023 4750 c0 -30 2 -43 4 -27 2 15 2 39 0 55 -2 15 -4 2 -4 -28z"/>
<path d="M4915 4620 c3 -5 8 -10 11 -10 2 0 4 5 4 10 0 6 -5 10 -11 10 -5 0
-7 -4 -4 -10z"/>
<path d="M5065 4450 c-3 -5 -1 -10 4 -10 6 0 11 5 11 10 0 6 -2 10 -4 10 -3 0
-8 -4 -11 -10z"/>
<path d="M5138 4433 c7 -3 16 -2 19 1 4 3 -2 6 -13 5 -11 0 -14 -3 -6 -6z"/>
<path d="M5200 4419 c0 -7 -17 -10 -44 -7 l-44 3 -4 -45 c-2 -25 -1 -61 2 -80
l5 -35 244 0 c256 0 286 6 212 39 -22 9 -39 22 -37 29 1 7 1 9 -1 5 -9 -15
-32 -8 -27 7 4 8 1 15 -5 15 -6 0 -11 -5 -11 -11 0 -6 -6 -9 -12 -6 -7 2 -12
13 -10 23 2 13 0 15 -5 7 -11 -15 -53 -6 -49 10 2 7 1 9 -1 5 -6 -10 -40 -10
-73 -1 l-25 7 25 7 c20 7 17 8 -15 7 -79 -3 -105 2 -105 17 0 8 -4 15 -10 15
-5 0 -10 -5 -10 -11z"/>
<path d="M5285 4410 c3 -5 8 -10 11 -10 2 0 4 5 4 10 0 6 -5 10 -11 10 -5 0
-7 -4 -4 -10z"/>
<path d="M5920 4380 c0 -5 5 -10 11 -10 5 0 7 5 4 10 -3 6 -8 10 -11 10 -2 0
-4 -4 -4 -10z"/>
<path d="M5660 4266 c0 -2 7 -6 15 -10 8 -3 15 -1 15 4 0 6 -7 10 -15 10 -8 0
-15 -2 -15 -4z"/>
<path d="M5840 4260 c0 -6 7 -10 15 -10 8 0 15 2 15 4 0 2 -7 6 -15 10 -8 3
-15 1 -15 -4z"/>
<path d="M5710 4230 c0 -5 5 -10 10 -10 6 0 10 5 10 10 0 6 -4 10 -10 10 -5 0
-10 -4 -10 -10z"/>
<path d="M5590 4220 c0 -5 5 -10 11 -10 5 0 7 5 4 10 -3 6 -8 10 -11 10 -2 0
-4 -4 -4 -10z"/>
<path d="M5630 4096 c0 -18 30 -30 43 -17 5 5 6 14 3 20 -10 16 -46 13 -46 -3z"/>
<path d="M5528 4065 c-2 -3 -88 -5 -189 -5 -101 -1 -194 -3 -206 -7 -20 -4
-23 -12 -23 -55 l0 -49 78 3 c54 2 76 7 75 15 -4 17 50 30 55 15 5 -15 29 -15
34 -1 2 6 25 13 51 16 30 2 55 11 67 23 11 11 26 20 33 20 15 1 55 30 41 30
-6 0 -13 -2 -16 -5z"/>
<path d="M5030 3913 c-3 -7 -22 -14 -43 -16 -21 -3 -43 -9 -50 -16 -16 -16
-44 -14 -73 5 -21 15 -28 15 -50 3 -21 -11 -24 -18 -20 -48 3 -20 5 -37 6 -39
0 -1 60 -1 133 0 l132 3 3 43 c2 32 0 42 -12 42 -8 0 -16 8 -18 18 -2 10 -6
12 -8 5z"/>
<path d="M4321 4835 c-1 -23 35 -59 44 -45 4 6 -1 13 -10 16 -9 4 -21 16 -25
28 -9 20 -9 21 -9 1z"/>
<path d="M4382 4761 c6 -10 17 -17 25 -14 7 3 10 9 7 14 -3 5 -10 7 -15 4 -5
-4 -9 -1 -9 4 0 6 -5 11 -10 11 -6 0 -6 -7 2 -19z"/>
<path d="M4280 4700 c0 -5 5 -10 10 -10 6 0 10 5 10 10 0 6 -4 10 -10 10 -5 0
-10 -4 -10 -10z"/>
<path d="M4870 4770 c0 -5 7 -7 15 -4 8 4 15 8 15 10 0 2 -7 4 -15 4 -8 0 -15
-4 -15 -10z"/>
<path d="M5330 2673 c-54 -28 -75 -74 -75 -163 1 -122 41 -170 145 -170 91 0
90 -2 90 175 0 94 -4 156 -10 160 -6 4 -34 9 -63 11 -38 4 -61 0 -87 -13z"/>
<path d="M4781 1812 c-13 -37 -32 -84 -43 -104 l-18 -38 85 0 85 0 -26 68
c-14 37 -31 81 -36 97 -18 50 -22 47 -47 -23z"/>
</g>
</svg>
